<svg width="116" height="79" viewBox="0 0 116 79" fill="none" xmlns="http://www.w3.org/2000/svg">
<path d="M57.9273 78.899C56.3823 78.9017 54.885 78.4168 53.6954 77.5284L14.0213 47.7339C12.6709 46.7225 11.8218 45.269 11.6605 43.6933C11.4993 42.1176 12.0393 40.5488 13.1617 39.3319C14.2841 38.115 15.8969 37.3497 17.6454 37.2044C19.3938 37.0591 21.1347 37.5458 22.4851 38.5572L57.9273 65.2531L93.3695 39.5106C94.0458 39.0157 94.8241 38.646 95.6595 38.423C96.4949 38.1999 97.3709 38.1278 98.2373 38.2109C99.1037 38.294 99.9434 38.5305 100.708 38.907C101.473 39.2834 102.147 39.7923 102.693 40.4045C103.298 41.0172 103.757 41.736 104.04 42.5158C104.323 43.2957 104.424 44.1198 104.337 44.9366C104.25 45.7533 103.977 46.5451 103.535 47.2623C103.093 47.9795 102.491 48.6066 101.767 49.1045L62.0931 77.886C60.8692 78.6339 59.4025 78.9906 57.9273 78.899Z" fill="#1DE9B6" fill-opacity="0.5"/>
<path d="M57.9105 51.3927C56.0085 51.396 54.1653 50.7991 52.7007 49.7055L3.85961 13.0267C2.19725 11.7815 1.15185 9.99224 0.953391 8.05247C0.754935 6.11271 1.41968 4.18134 2.80138 2.68326C4.18309 1.18517 6.16857 0.243088 8.32105 0.0642445C10.4735 -0.114599 12.6167 0.484449 14.279 1.72961L57.9105 34.5938L101.542 2.90334C102.375 2.29398 103.333 1.83893 104.361 1.56434C105.389 1.28975 106.468 1.20104 107.535 1.30329C108.601 1.40555 109.635 1.69675 110.576 2.16018C111.517 2.62361 112.348 3.25012 113.02 4.0037C113.765 4.75797 114.33 5.64286 114.678 6.60291C115.026 7.56297 115.151 8.57751 115.044 9.58297C114.937 10.5884 114.601 11.5632 114.056 12.4461C113.512 13.329 112.771 14.101 111.88 14.7139L63.0388 50.1456C61.5322 51.0664 59.7265 51.5054 57.9105 51.3927Z" fill="#1DE9B6" fill-opacity="0.5"/>
</svg>
