<svg width="671" height="676" viewBox="0 0 671 676" fill="none" xmlns="http://www.w3.org/2000/svg">
<path d="M501.693 41.1343C558.948 62.8477 614.309 106.746 644.592 167.166C675.349 227.114 680.554 303.111 649.324 357.394C618.094 412.15 549.957 444.72 489.864 502.307C429.771 559.895 377.721 642.5 307.691 667.046C237.662 691.591 149.651 658.077 105.172 595.769C60.694 532.989 59.7477 440.943 42.7134 360.698C25.679 280.453 -7.44324 212.009 2.02027 149.701C11.4838 87.3932 63.5331 30.7496 124.573 10.4524C185.612 -9.8449 255.642 6.67615 320.467 14.2286C384.819 21.3091 443.966 19.893 501.693 41.1343Z" fill="#1DE9B6"/>
<path d="M425.529 502.514L358.762 487.656L284.716 293.742L247.094 462.807L180.327 447.949L241.321 173.854L308.088 188.711L381.961 383.406L419.757 213.561L486.524 228.418L425.529 502.514Z" fill="#66FFA6"/>
<path d="M396.066 495.958L329.299 481.1L255.253 287.186L217.631 456.25L150.864 441.393L211.858 167.297L278.625 182.155L352.498 376.85L390.294 207.004L457.061 221.862L396.066 495.958Z" fill="#00E676"/>
<g filter="url(#filter0_d_201:145)">
<path d="M331.232 300.609L387.615 320.251L456.914 221.837L390.33 206.764L331.232 300.609Z" fill="#6EFFE8"/>
</g>
<g filter="url(#filter1_d_201:145)">
<path d="M151.451 440.426L218.037 455.754L233.987 330.175L165.653 319.322L151.451 440.426Z" fill="#6EFFE8"/>
</g>
<defs>
<filter id="filter0_d_201:145" x="327.232" y="206.764" width="133.682" height="121.487" filterUnits="userSpaceOnUse" color-interpolation-filters="sRGB">
<feFlood flood-opacity="0" result="BackgroundImageFix"/>
<feColorMatrix in="SourceAlpha" type="matrix" values="0 0 0 0 0 0 0 0 0 0 0 0 0 0 0 0 0 0 127 0" result="hardAlpha"/>
<feOffset dy="4"/>
<feGaussianBlur stdDeviation="2"/>
<feComposite in2="hardAlpha" operator="out"/>
<feColorMatrix type="matrix" values="0 0 0 0 0 0 0 0 0 0 0 0 0 0 0 0 0 0 0.25 0"/>
<feBlend mode="normal" in2="BackgroundImageFix" result="effect1_dropShadow_201:145"/>
<feBlend mode="normal" in="SourceGraphic" in2="effect1_dropShadow_201:145" result="shape"/>
</filter>
<filter id="filter1_d_201:145" x="147.451" y="319.322" width="90.5358" height="144.432" filterUnits="userSpaceOnUse" color-interpolation-filters="sRGB">
<feFlood flood-opacity="0" result="BackgroundImageFix"/>
<feColorMatrix in="SourceAlpha" type="matrix" values="0 0 0 0 0 0 0 0 0 0 0 0 0 0 0 0 0 0 127 0" result="hardAlpha"/>
<feOffset dy="4"/>
<feGaussianBlur stdDeviation="2"/>
<feComposite in2="hardAlpha" operator="out"/>
<feColorMatrix type="matrix" values="0 0 0 0 0 0 0 0 0 0 0 0 0 0 0 0 0 0 0.25 0"/>
<feBlend mode="normal" in2="BackgroundImageFix" result="effect1_dropShadow_201:145"/>
<feBlend mode="normal" in="SourceGraphic" in2="effect1_dropShadow_201:145" result="shape"/>
</filter>
</defs>
</svg>
